<?xml version="1.0"?>
<!-- Copyright (c) 2021 fsoci.al <[..]@fsoci.al> CC BY-NC 4.0 -->
<svg xmlns="http://www.w3.org/2000/svg" width="140" height="56">
<g transform="translate(0,56) scale(0.1,-0.1)" stroke="none" fill="#872424">
<path d="M80 480 l0 -80 -40 0 -40 0 0 -40 0 -40 40 0 40 0 0 -160 0 -160 40 0 40 0 0 160 0 160 40 0 40 0 0 40 0 40 -40 0 -40 0 0 40 0 40 40 0 40 0 0 40 0 40 -80 0 -80 0 0 -80z"/>
<path d="M1320 360 l0 -200 40 0 40 0 0 200 0 200 -40 0 -40 0 0 -200z"/>
<path d="M260 320 l0 -80 -40 0 -40 0 0 -40 0 -40 80 0 80 0 0 80 0 80 40 0 40 0 0 40 0 40 -80 0 -80 0 0 -80z"/>
<path d="M440 280 l0 -120 120 0 120 0 0 120 0 120 -120 0 -120 0 0 -120z m160 0 l0 -40 -40 0 -40 0 0 40 0 40 40 0 40 0 0 -40z"/>
<path d="M700 280 l0 -120 120 0 120 0 0 40 0 40 -80 0 -80 0 0 40 0 40 80 0 80 0 0 40 0 40 -120 0 -120 0 0 -120z"/>
<path d="M960 280 l0 -120 40 0 40 0 0 120 0 120 -40 0 -40 0 0 -120z"/>
<path d="M1060 280 l0 -120 80 0 80 0 0 40 0 40 40 0 40 0 0 80 0 80 -120 0 -120 0 0 -120z m160 0 l0 -40 -40 0 -40 0 0 40 0 40 40 0 40 0 0 -40z"/>
</g>
</svg>