<?xml version="1.0" encoding="UTF-8" standalone="no"?>
<svg
   xmlns:svg="http://www.w3.org/2000/svg"
   xmlns="http://www.w3.org/2000/svg"
   version="1.1"
   width="255"
   height="323"
   id="Layer_1">
  <style
     type="text/css"
     id="style311">
	.st0{fill:#7DC8A2;}
	.st1{fill:#AFDBC5;}
	.st2{fill:#764D80;}
</style>
  <path
     d="M 139.8,0.8 H 48.6 c -0.2,0 -0.4,0 -0.6,0 -25.3,0 -45.9,20.5 -45.9,45.9 v 229.5 c 0,25.3 20.5,45.9 45.9,45.9 25.4,0 45.9,-20.5 45.9,-45.9 V 230.3 H 139.8 C 203,230.3 254.5,178.8 254.5,115.6 254.5,52.4 203,0.8 139.8,0.8 Z"
     class="st0" />
     id="path313" />
  <path
     d="m 48,310.6 c -19,0 -34.4,-15.5 -34.4,-34.4 V 46.7 c 0,-18.9 15.3,-34.3 34.2,-34.4 0.2,0 0.5,0 0.7,0 H 139.8 c 56.9,0 103.3,46.3 103.3,103.3 0,57 -46.3,103.3 -103.3,103.3 H 82.5 v 57.4 c -0.1,18.9 -15.5,34.3 -34.5,34.3 z"
     class="st1" />
     id="path315" />
  <path
     d="m 48,299.2 c -12.7,0 -23,-10.3 -23,-23 V 46.7 c 0,-12.5 10.1,-22.7 22.5,-23 0.2,0 0.5,0 0.7,0 H 139.7 c 50.6,0 91.8,41.2 91.8,91.8 0,50.6 -41.2,91.8 -91.8,91.8 H 71 v 68.8 c 0,12.8 -10.3,23.1 -23,23.1 z"
     class="st0" />
     id="path317" />
  <path
     d="m 48,287.7 c -6.4,0 -11.6,-5.2 -11.6,-11.6 V 46.7 c 0,-6.2 5,-11.3 11.1,-11.5 h 0.5 H 139.8 c 44.3,0 80.4,36.1 80.4,80.4 0,44.3 -36,80.4 -80.4,80.4 H 59.6 v 80.3 c 0,6.2 -5.2,11.4 -11.6,11.4 z"
     class="st1" />
     id="path319" />
  <path
     d="M 48.1,184.4 H 139.8 c 38,0 68.9,-30.9 68.9,-68.9 0,-38 -30.9,-68.9 -68.9,-68.9 H 48 Z"
     class="st0" />
     id="path321" />
  <path
     d="m 59.5,173 -0.1,-114.9 H 139.7 c 31.7,0 57.5,25.8 57.5,57.5 0,31.7 -25.7,57.4 -57.4,57.4 z"
     class="st1" />
     id="path323" />
  <path
     d="m 71,161.6 -0.1,-92 H 139.8 c 25.4,0 46,20.6 46,46 0,25.4 -20.6,46 -46,46 z"
     class="st0" />
     id="path325" />
  <path
     d="m 82.4,150.1 -0.1,-69.1 H 139.7 c 19.1,0 34.6,15.5 34.6,34.6 0,19.1 -15.5,34.6 -34.6,34.6 H 82.4 Z"
     class="st1" />
     id="path327" />
  <path
     d="M 93.9,138.7 V 92.4 H 139.8 c 12.8,0 23.1,10.4 23.1,23.1 0,12.7 -10.4,23.1 -23.1,23.1 H 93.9 Z"
     class="st0" />
     id="path329" />
  <path
     d="m 105.3,127.2 v -23.4 h 34.5 c 6.4,0 11.7,5.2 11.7,11.7 0,6.5 -5.2,11.7 -11.7,11.7 z"
     class="st1" />
     id="path331" />
  <g
     id="g337">
    <circle
       r="45.9"
       cx="46.5"
       cy="46.7"
       class="st2"
       id="ellipse333" />
    <path
       d="m 244.7,249.8 c 14.5,20.8 9.5,49.4 -11.3,63.9 -20.8,14.5 -49.4,9.5 -63.9,-11.3 l -68.7,-98.2 c -14.5,-20.8 -9.5,-49.4 11.3,-63.9 20.8,-14.5 49.4,-9.5 63.9,11.3 z"
       class="st2" />
       id="path335" />
  </g>
</svg>
